<svg id="svg" version="1.1" xmlns="http://www.w3.org/2000/svg" xmlns:xlink="http://www.w3.org/1999/xlink" width="400" height="400" viewBox="0, 0, 400,400"><g id="svgg"><path id="path0" d="M166.377 250.021 C 166.060 250.175,165.018 250.683,164.062 251.150 C 163.106 251.618,162.071 252.000,161.762 252.000 C 161.453 252.000,161.200 252.146,161.200 252.325 C 161.200 252.504,160.570 252.898,159.800 253.200 C 159.030 253.502,158.400 253.896,158.400 254.075 C 158.400 254.254,158.051 254.400,157.624 254.400 C 157.197 254.400,156.736 254.580,156.600 254.800 C 156.464 255.020,155.913 255.200,155.376 255.200 C 154.839 255.200,154.400 255.380,154.400 255.600 C 154.400 255.820,154.040 256.000,153.600 256.000 C 153.160 256.000,152.800 256.180,152.800 256.400 C 152.800 256.620,152.440 256.800,152.000 256.800 C 151.560 256.800,151.200 256.980,151.200 257.200 C 151.200 257.420,150.840 257.600,150.400 257.600 C 149.960 257.600,149.600 257.757,149.600 257.950 C 149.600 258.143,149.061 258.408,148.402 258.540 C 147.744 258.671,146.450 259.144,145.527 259.590 C 144.605 260.035,143.614 260.400,143.325 260.400 C 143.036 260.400,142.800 260.580,142.800 260.800 C 142.800 261.020,142.440 261.200,142.000 261.200 C 141.560 261.200,141.200 261.380,141.200 261.600 C 141.200 261.820,140.840 262.000,140.400 262.000 C 139.960 262.000,139.600 262.180,139.600 262.400 C 139.600 262.620,139.328 262.800,138.995 262.800 C 138.662 262.800,138.032 262.980,137.595 263.200 C 137.158 263.420,136.442 263.780,136.005 264.000 C 135.568 264.220,134.938 264.400,134.605 264.400 C 134.272 264.400,134.000 264.580,134.000 264.800 C 134.000 265.020,133.640 265.200,133.200 265.200 C 132.760 265.200,132.400 265.380,132.400 265.600 C 132.400 265.820,132.040 266.000,131.600 266.000 C 131.160 266.000,130.800 266.180,130.800 266.400 C 130.800 266.620,130.440 266.800,130.000 266.800 C 129.560 266.800,129.200 266.980,129.200 267.200 C 129.200 267.420,128.750 267.600,128.200 267.600 C 127.650 267.600,127.200 267.780,127.200 268.000 C 127.200 268.220,126.840 268.400,126.400 268.400 C 125.960 268.400,125.600 268.580,125.600 268.800 C 125.600 269.020,125.240 269.200,124.800 269.200 C 124.360 269.200,124.000 269.380,124.000 269.600 C 124.000 269.820,123.640 270.000,123.200 270.000 C 122.760 270.000,122.400 270.180,122.400 270.400 C 122.400 270.620,122.040 270.800,121.600 270.800 C 121.160 270.800,120.800 270.980,120.800 271.200 C 120.800 271.420,120.451 271.600,120.024 271.600 C 119.597 271.600,119.136 271.780,119.000 272.000 C 118.864 272.220,118.313 272.400,117.776 272.400 C 117.239 272.400,116.800 272.580,116.800 272.800 C 116.800 273.020,116.440 273.200,116.000 273.200 C 115.560 273.200,115.200 273.380,115.200 273.600 C 115.200 273.820,114.840 274.000,114.400 274.000 C 113.960 274.000,113.600 274.180,113.600 274.400 C 113.600 274.620,113.352 274.800,113.050 274.800 C 112.506 274.800,108.452 276.441,107.105 277.205 C 106.723 277.422,106.138 277.600,105.805 277.600 C 105.472 277.600,105.200 277.780,105.200 278.000 C 105.200 278.220,104.840 278.400,104.400 278.400 C 103.960 278.400,103.600 278.580,103.600 278.800 C 103.600 279.020,103.240 279.200,102.800 279.200 C 102.360 279.200,102.000 279.380,102.000 279.600 C 102.000 279.820,101.728 280.000,101.395 280.000 C 101.062 280.000,100.477 280.157,100.095 280.350 C 97.150 281.833,95.851 282.400,95.396 282.400 C 95.105 282.400,94.807 282.535,94.733 282.700 C 94.512 283.199,91.178 284.800,90.362 284.800 C 89.943 284.800,89.600 284.980,89.600 285.200 C 89.600 285.420,89.240 285.600,88.800 285.600 C 88.360 285.600,88.000 285.780,88.000 286.000 C 88.000 286.220,87.640 286.400,87.200 286.400 C 86.760 286.400,86.400 286.580,86.400 286.800 C 86.400 287.020,86.040 287.200,85.600 287.200 C 85.160 287.200,84.800 287.380,84.800 287.600 C 84.800 287.820,84.440 288.000,84.000 288.000 C 83.560 288.000,83.200 288.180,83.200 288.400 C 83.200 288.620,82.928 288.800,82.595 288.800 C 82.262 288.800,81.632 288.980,81.195 289.200 C 80.758 289.420,80.042 289.780,79.605 290.000 C 79.168 290.220,78.538 290.400,78.205 290.400 C 77.872 290.400,77.600 290.538,77.600 290.706 C 77.600 291.007,74.699 292.400,74.072 292.400 C 73.745 292.400,70.775 293.711,69.505 294.415 C 69.123 294.627,68.538 294.800,68.205 294.800 C 67.872 294.800,67.600 294.980,67.600 295.200 C 67.600 295.420,67.240 295.600,66.800 295.600 C 66.360 295.600,66.000 295.780,66.000 296.000 C 66.000 296.220,65.640 296.400,65.200 296.400 C 64.760 296.400,64.400 296.580,64.400 296.800 C 64.400 297.020,64.040 297.200,63.600 297.200 C 63.160 297.200,62.800 297.380,62.800 297.600 C 62.800 297.820,62.350 298.000,61.800 298.000 C 61.250 298.000,60.800 298.180,60.800 298.400 C 60.800 298.620,60.440 298.800,60.000 298.800 C 59.560 298.800,59.200 298.980,59.200 299.200 C 59.200 299.420,58.840 299.600,58.400 299.600 C 57.960 299.600,57.600 299.780,57.600 300.000 C 57.600 300.220,57.240 300.400,56.800 300.400 C 56.360 300.400,56.000 300.580,56.000 300.800 C 56.000 301.020,55.728 301.200,55.395 301.200 C 55.062 301.200,54.432 301.380,53.995 301.600 C 53.558 301.820,52.842 302.180,52.405 302.400 C 51.968 302.620,51.338 302.800,51.005 302.800 C 50.672 302.800,50.400 302.980,50.400 303.200 C 50.400 303.420,50.040 303.600,49.600 303.600 C 49.160 303.600,48.800 303.780,48.800 304.000 C 48.800 304.220,48.440 304.400,48.000 304.400 C 47.560 304.400,47.200 304.580,47.200 304.800 C 47.200 305.020,46.840 305.200,46.400 305.200 C 45.960 305.200,45.600 305.380,45.600 305.600 C 45.600 305.820,45.251 306.000,44.824 306.000 C 44.397 306.000,43.936 306.180,43.800 306.400 C 43.664 306.620,43.203 306.800,42.776 306.800 C 42.349 306.800,42.000 306.980,42.000 307.200 C 42.000 307.420,41.640 307.600,41.200 307.600 C 40.760 307.600,40.400 307.780,40.400 308.000 C 40.400 308.220,40.085 308.401,39.700 308.402 C 39.315 308.404,38.484 308.674,37.854 309.002 C 37.224 309.331,36.459 309.600,36.154 309.600 C 35.849 309.600,35.600 309.780,35.600 310.000 C 35.600 310.220,35.285 310.403,34.900 310.407 C 34.515 310.411,32.040 311.491,29.401 312.807 C 26.761 314.123,24.286 315.200,23.901 315.200 C 23.515 315.200,23.200 315.380,23.200 315.600 C 23.200 315.820,22.840 316.000,22.400 316.000 C 21.960 316.000,21.600 316.180,21.600 316.400 C 21.600 316.620,21.240 316.800,20.800 316.800 C 20.360 316.800,20.000 316.980,20.000 317.200 C 20.000 317.420,19.640 317.600,19.200 317.600 C 18.116 317.600,18.185 318.249,19.300 318.548 C 19.795 318.681,66.179 318.792,122.375 318.795 L 224.549 318.800 228.575 316.945 C 233.011 314.901,236.645 313.237,240.000 311.712 C 241.210 311.162,243.325 310.192,244.700 309.556 C 246.075 308.920,248.325 307.880,249.700 307.244 C 251.075 306.608,253.190 305.637,254.400 305.086 C 255.610 304.536,257.950 303.456,259.600 302.686 C 261.250 301.916,264.400 300.476,266.600 299.486 C 268.800 298.496,271.680 297.201,273.000 296.607 C 274.320 296.013,276.750 294.894,278.400 294.119 C 286.128 290.493,294.081 286.829,300.800 283.800 C 307.333 280.854,309.319 279.952,312.000 278.714 C 313.430 278.053,315.590 277.062,316.800 276.512 C 318.010 275.962,320.080 275.012,321.400 274.400 C 322.720 273.788,324.790 272.830,326.000 272.271 C 327.210 271.712,329.820 270.503,331.800 269.584 C 333.780 268.665,336.942 267.230,338.828 266.396 C 340.713 265.562,343.683 264.212,345.428 263.397 C 348.434 261.992,349.669 261.425,355.100 258.953 C 356.365 258.378,358.660 257.318,360.200 256.599 C 365.552 254.099,369.015 252.507,371.500 251.402 C 372.875 250.791,374.000 250.169,374.000 250.021 C 374.000 249.662,167.119 249.662,166.377 250.021 " stroke="none" fill="#3ca4fc" fill-rule="evenodd"></path><path id="path1" d="M148.227 37.644 C 148.348 37.840,148.077 38.000,147.624 38.000 C 147.171 38.000,146.800 38.180,146.800 38.400 C 146.800 38.620,146.429 38.800,145.976 38.800 C 145.523 38.800,145.264 38.980,145.400 39.200 C 145.536 39.420,145.266 39.600,144.800 39.600 C 144.334 39.600,144.064 39.780,144.200 40.000 C 144.336 40.220,144.156 40.400,143.800 40.400 C 143.444 40.400,143.264 40.580,143.400 40.800 C 143.536 41.020,143.478 41.200,143.272 41.200 C 143.066 41.200,142.673 41.740,142.400 42.400 C 142.127 43.060,141.745 43.600,141.551 43.600 C 141.358 43.600,141.200 43.949,141.200 44.376 C 141.200 44.803,141.020 45.264,140.800 45.400 C 140.571 45.542,140.400 47.612,140.400 50.247 C 140.400 53.212,140.542 54.759,140.800 54.600 C 141.038 54.453,141.200 54.921,141.200 55.753 C 141.200 56.523,141.383 57.266,141.607 57.404 C 141.830 57.542,141.930 57.789,141.829 57.953 C 141.728 58.117,141.885 59.410,142.179 60.826 C 142.473 62.242,142.642 63.520,142.554 63.666 C 142.467 63.812,142.564 63.992,142.771 64.066 C 142.977 64.140,143.212 64.924,143.293 65.809 C 143.374 66.694,143.548 67.594,143.680 67.809 C 143.812 68.024,143.982 68.740,144.058 69.400 C 144.135 70.060,144.323 70.695,144.477 70.810 C 144.631 70.926,144.802 71.781,144.857 72.710 C 144.912 73.640,145.101 74.400,145.278 74.400 C 145.455 74.400,145.600 75.019,145.600 75.776 C 145.600 76.533,145.780 77.264,146.000 77.400 C 146.220 77.536,146.400 78.231,146.400 78.944 C 146.400 79.657,146.570 80.411,146.779 80.620 C 146.987 80.829,147.203 81.777,147.258 82.726 C 147.314 83.675,147.504 84.540,147.680 84.649 C 147.856 84.758,148.000 85.366,148.000 86.000 C 148.000 86.634,148.180 87.264,148.400 87.400 C 148.620 87.536,148.800 88.357,148.800 89.224 C 148.800 90.091,148.980 90.800,149.200 90.800 C 149.420 90.800,149.600 91.520,149.600 92.400 C 149.600 93.280,149.743 94.000,149.918 94.000 C 150.186 94.000,150.401 95.265,150.510 97.482 C 150.523 97.748,150.683 97.872,150.867 97.759 C 151.050 97.645,151.200 98.283,151.200 99.176 C 151.200 100.069,151.380 100.800,151.600 100.800 C 151.820 100.800,152.000 101.520,152.000 102.400 C 152.000 103.280,152.180 104.000,152.400 104.000 C 152.620 104.000,152.800 104.642,152.800 105.426 C 152.800 106.211,152.973 107.175,153.184 107.569 C 153.395 107.964,153.611 108.930,153.664 109.717 C 153.717 110.504,153.885 111.071,154.038 110.976 C 154.191 110.882,154.418 111.478,154.543 112.302 C 155.109 116.045,155.317 117.028,155.626 117.415 C 155.808 117.644,156.002 118.578,156.056 119.492 C 156.109 120.405,156.299 121.062,156.477 120.953 C 156.655 120.843,156.800 121.473,156.800 122.353 C 156.800 123.233,156.980 124.064,157.200 124.200 C 157.420 124.336,157.600 125.157,157.600 126.024 C 157.600 126.891,157.762 127.600,157.960 127.600 C 158.158 127.600,158.430 128.455,158.564 129.500 C 158.699 130.545,158.880 131.940,158.967 132.600 C 159.054 133.260,159.297 134.250,159.507 134.800 C 159.717 135.350,159.840 136.115,159.780 136.500 C 159.720 136.885,159.835 137.200,160.035 137.200 C 160.236 137.200,160.405 137.605,160.412 138.100 C 160.418 138.595,160.773 140.260,161.200 141.800 C 161.627 143.340,161.982 145.059,161.988 145.620 C 161.995 146.181,162.170 146.811,162.379 147.020 C 162.587 147.229,162.803 148.177,162.858 149.126 C 162.914 150.075,163.104 150.940,163.280 151.049 C 163.456 151.158,163.600 151.766,163.600 152.400 C 163.600 153.034,163.780 153.664,164.000 153.800 C 164.220 153.936,164.400 154.656,164.400 155.400 C 164.400 156.144,164.580 156.864,164.800 157.000 C 165.020 157.136,165.200 157.957,165.200 158.824 C 165.200 159.691,165.343 160.400,165.518 160.400 C 165.693 160.400,165.882 161.070,165.937 161.888 C 165.992 162.706,166.198 163.475,166.395 163.597 C 166.592 163.719,166.797 164.660,166.850 165.687 C 166.904 166.715,167.094 167.465,167.274 167.355 C 167.453 167.244,167.600 167.883,167.600 168.776 C 167.600 169.669,167.780 170.400,168.000 170.400 C 168.220 170.400,168.400 171.042,168.400 171.826 C 168.400 172.611,168.573 173.575,168.784 173.969 C 168.995 174.364,169.211 175.330,169.264 176.117 C 169.317 176.904,169.504 177.459,169.680 177.351 C 169.856 177.242,170.000 177.873,170.000 178.753 C 170.000 179.633,170.180 180.464,170.400 180.600 C 170.620 180.736,170.800 181.431,170.800 182.144 C 170.800 182.857,170.970 183.611,171.179 183.820 C 171.387 184.029,171.601 184.954,171.655 185.876 C 171.709 186.798,171.899 187.462,172.077 187.353 C 172.255 187.243,172.400 187.873,172.400 188.753 C 172.400 189.633,172.580 190.464,172.800 190.600 C 173.020 190.736,173.200 191.456,173.200 192.200 C 173.200 192.944,173.380 193.664,173.600 193.800 C 173.820 193.936,174.000 194.757,174.000 195.624 C 174.000 196.491,174.180 197.200,174.400 197.200 C 174.620 197.200,174.800 198.021,174.800 199.024 C 174.800 200.235,174.946 200.757,175.235 200.578 C 175.516 200.405,175.636 200.714,175.575 201.455 C 175.523 202.085,175.605 203.050,175.758 203.600 C 175.910 204.150,176.083 205.058,176.142 205.617 C 176.202 206.176,176.372 206.832,176.522 207.074 C 176.671 207.315,176.840 208.162,176.897 208.956 C 176.954 209.749,177.135 210.399,177.300 210.399 C 177.465 210.400,177.600 210.784,177.600 211.254 C 177.600 211.723,177.773 212.758,177.985 213.554 C 178.477 215.396,179.560 219.726,180.049 221.800 C 180.256 222.680,180.534 224.165,180.665 225.100 C 180.796 226.035,181.024 226.800,181.170 226.800 C 181.317 226.800,181.482 227.470,181.537 228.288 C 181.592 229.106,181.798 229.875,181.995 229.997 C 182.192 230.119,182.397 231.060,182.450 232.087 C 182.504 233.115,182.694 233.865,182.874 233.755 C 183.053 233.644,183.200 234.283,183.200 235.176 C 183.200 236.069,183.380 236.800,183.600 236.800 C 183.820 236.800,184.000 237.520,184.000 238.400 C 184.000 239.280,184.143 240.000,184.318 240.000 C 184.586 240.000,184.801 241.265,184.910 243.482 C 184.923 243.748,185.083 243.872,185.267 243.759 C 185.450 243.645,185.600 244.273,185.600 245.153 C 185.600 246.033,185.780 246.864,186.000 247.000 C 186.220 247.136,186.400 247.757,186.400 248.381 C 186.400 250.032,186.003 250.000,206.475 250.000 L 225.284 250.000 225.070 248.500 C 224.718 246.042,224.499 245.061,224.035 243.866 C 223.793 243.243,223.696 242.568,223.821 242.366 C 223.945 242.165,223.895 242.000,223.709 242.000 C 223.523 242.000,223.335 241.685,223.291 241.300 C 223.188 240.386,222.990 239.585,222.623 238.600 C 221.864 236.561,221.612 235.728,221.474 234.800 C 221.392 234.250,221.116 233.290,220.860 232.666 C 220.604 232.043,220.513 231.340,220.659 231.105 C 220.816 230.851,220.735 230.793,220.462 230.962 C 220.165 231.145,220.000 230.927,220.000 230.352 C 220.000 229.411,219.346 227.084,218.751 225.905 C 218.558 225.523,218.400 224.859,218.400 224.429 C 218.400 223.999,218.220 223.536,218.000 223.400 C 217.780 223.264,217.600 222.623,217.600 221.976 C 217.600 221.329,217.420 220.800,217.200 220.800 C 216.980 220.800,216.800 220.181,216.800 219.424 C 216.800 218.667,216.620 217.936,216.400 217.800 C 216.180 217.664,216.000 217.124,216.000 216.600 C 216.000 216.076,215.820 215.536,215.600 215.400 C 215.380 215.264,215.200 214.634,215.200 214.000 C 215.200 213.366,215.020 212.736,214.800 212.600 C 214.580 212.464,214.400 211.838,214.400 211.210 C 214.400 210.581,214.228 210.007,214.018 209.933 C 213.807 209.860,213.591 209.137,213.537 208.326 C 213.484 207.515,213.296 206.941,213.120 207.049 C 212.944 207.158,212.800 206.607,212.800 205.824 C 212.800 205.041,212.620 204.400,212.400 204.400 C 212.180 204.400,212.000 203.781,212.000 203.024 C 212.000 202.267,211.820 201.536,211.600 201.400 C 211.380 201.264,211.200 200.713,211.200 200.176 C 211.200 199.639,211.020 199.200,210.800 199.200 C 210.580 199.200,210.400 198.671,210.400 198.024 C 210.400 197.377,210.220 196.736,210.000 196.600 C 209.780 196.464,209.600 195.834,209.600 195.200 C 209.600 194.566,209.440 193.948,209.244 193.827 C 209.049 193.706,208.795 193.021,208.681 192.304 C 208.568 191.587,208.292 190.370,208.068 189.600 C 207.845 188.830,207.272 186.760,206.795 185.000 C 206.319 183.240,205.860 181.573,205.775 181.296 C 205.691 181.018,205.619 180.703,205.616 180.594 C 205.612 180.485,205.337 179.745,205.005 178.949 C 204.672 178.153,204.400 177.074,204.400 176.551 C 204.400 176.028,204.259 175.600,204.087 175.600 C 203.815 175.600,203.607 174.647,203.498 172.900 C 203.481 172.625,203.317 172.400,203.133 172.400 C 202.950 172.400,202.800 171.961,202.800 171.424 C 202.800 170.887,202.620 170.336,202.400 170.200 C 202.180 170.064,202.000 169.333,202.000 168.576 C 202.000 167.819,201.820 167.200,201.600 167.200 C 201.380 167.200,201.200 166.748,201.200 166.195 C 201.200 165.642,201.038 164.877,200.839 164.495 C 200.640 164.113,200.263 162.990,200.000 162.000 C 199.737 161.010,199.360 159.887,199.161 159.505 C 198.962 159.123,198.800 158.373,198.800 157.839 C 198.800 157.304,198.628 156.807,198.418 156.733 C 198.207 156.660,197.991 155.937,197.937 155.126 C 197.884 154.315,197.696 153.741,197.520 153.849 C 197.344 153.958,197.200 153.507,197.200 152.847 C 197.200 152.187,197.020 151.536,196.800 151.400 C 196.580 151.264,196.400 150.523,196.400 149.753 C 196.400 148.921,196.238 148.453,196.000 148.600 C 195.758 148.750,195.600 148.196,195.600 147.200 C 195.600 146.204,195.442 145.650,195.200 145.800 C 194.961 145.947,194.800 145.463,194.800 144.600 C 194.800 143.737,194.639 143.253,194.400 143.400 C 194.162 143.547,194.000 143.079,194.000 142.247 C 194.000 141.477,193.820 140.736,193.600 140.600 C 193.380 140.464,193.200 139.823,193.200 139.176 C 193.200 138.529,193.020 138.000,192.800 138.000 C 192.580 138.000,192.400 137.381,192.400 136.624 C 192.400 135.867,192.220 135.136,192.000 135.000 C 191.780 134.864,191.600 134.324,191.600 133.800 C 191.600 133.276,191.411 132.731,191.181 132.588 C 190.950 132.446,190.802 132.030,190.852 131.665 C 190.901 131.299,190.550 129.767,190.072 128.260 C 189.593 126.754,189.302 125.359,189.424 125.160 C 189.547 124.962,189.457 124.800,189.224 124.800 C 188.991 124.800,188.800 124.361,188.800 123.824 C 188.800 123.287,188.620 122.736,188.400 122.600 C 188.180 122.464,188.000 121.971,188.000 121.505 C 188.000 120.604,187.335 118.261,186.751 117.105 C 186.558 116.723,186.400 115.956,186.400 115.400 C 186.400 114.427,186.274 114.063,185.262 112.105 C 185.008 111.613,184.800 110.698,184.800 110.072 C 184.800 109.446,184.677 108.810,184.526 108.659 C 184.082 108.215,183.213 105.476,183.206 104.500 C 183.203 104.005,183.020 103.600,182.800 103.600 C 182.580 103.600,182.400 103.060,182.400 102.400 C 182.400 101.740,182.220 101.200,182.000 101.200 C 181.780 101.200,181.600 100.570,181.600 99.800 C 181.600 99.030,181.420 98.400,181.200 98.400 C 180.980 98.400,180.800 97.871,180.800 97.224 C 180.800 96.577,180.620 95.936,180.400 95.800 C 180.180 95.664,180.000 95.034,180.000 94.400 C 180.000 93.766,179.820 93.136,179.600 93.000 C 179.380 92.864,179.200 92.238,179.200 91.610 C 179.200 90.981,179.028 90.407,178.818 90.333 C 178.607 90.260,178.391 89.537,178.337 88.726 C 178.284 87.915,178.096 87.341,177.920 87.449 C 177.744 87.558,177.600 87.107,177.600 86.447 C 177.600 85.787,177.420 85.136,177.200 85.000 C 176.980 84.864,176.800 84.123,176.800 83.353 C 176.800 82.521,176.638 82.053,176.400 82.200 C 176.158 82.350,176.000 81.796,176.000 80.800 C 176.000 79.804,175.842 79.250,175.600 79.400 C 175.367 79.544,175.200 79.145,175.200 78.447 C 175.200 77.787,175.023 77.138,174.806 77.004 C 174.589 76.870,174.434 76.364,174.461 75.880 C 174.488 75.396,174.308 74.499,174.060 73.886 C 173.812 73.273,173.636 72.643,173.668 72.486 C 173.701 72.329,173.624 71.930,173.498 71.600 C 172.704 69.525,172.043 67.053,172.210 66.784 C 172.317 66.610,172.230 66.408,172.015 66.334 C 171.801 66.260,171.581 65.615,171.528 64.900 C 171.474 64.185,171.288 63.600,171.115 63.600 C 170.942 63.600,170.800 63.238,170.800 62.795 C 170.800 62.352,170.638 61.677,170.439 61.295 C 170.240 60.913,169.859 59.790,169.592 58.800 C 169.324 57.810,169.010 56.730,168.892 56.400 C 168.597 55.568,168.423 54.755,168.317 53.700 C 168.267 53.205,168.085 52.800,167.913 52.800 C 167.741 52.800,167.600 52.361,167.600 51.824 C 167.600 51.287,167.420 50.736,167.200 50.600 C 166.980 50.464,166.795 49.958,166.790 49.476 C 166.775 48.211,164.988 43.146,164.669 43.465 C 164.521 43.612,164.400 43.448,164.400 43.098 C 164.400 42.310,160.945 38.800,160.168 38.800 C 159.856 38.800,159.600 38.620,159.600 38.400 C 159.600 38.180,159.251 38.000,158.824 38.000 C 158.397 38.000,157.931 37.812,157.789 37.582 C 157.629 37.324,155.714 37.188,152.769 37.226 C 150.103 37.260,148.104 37.444,148.227 37.644 M362.400 37.600 C 362.400 37.820,362.040 38.000,361.600 38.000 C 361.160 38.000,360.800 38.180,360.800 38.400 C 360.800 38.620,360.503 38.800,360.140 38.800 C 359.318 38.800,355.200 42.995,355.200 43.833 C 355.200 44.171,355.020 44.336,354.800 44.200 C 354.567 44.056,354.400 44.455,354.400 45.153 C 354.400 45.813,354.220 46.464,354.000 46.600 C 353.780 46.736,353.600 47.636,353.600 48.600 C 353.600 49.564,353.420 50.464,353.200 50.600 C 352.980 50.736,352.800 51.611,352.800 52.544 C 352.800 53.477,352.575 54.482,352.300 54.779 C 351.893 55.217,351.912 55.255,352.400 54.982 C 352.881 54.713,352.909 54.761,352.543 55.223 C 352.107 55.773,351.849 57.220,351.350 61.901 C 351.227 63.056,350.963 63.900,350.763 63.777 C 350.561 63.652,350.400 64.618,350.400 65.953 C 350.400 67.273,350.220 68.464,350.000 68.600 C 349.780 68.736,349.600 69.747,349.600 70.847 C 349.600 71.947,349.452 72.756,349.271 72.644 C 349.089 72.532,348.899 73.365,348.847 74.496 C 348.796 75.626,348.634 76.742,348.489 76.976 C 348.222 77.403,347.735 80.265,347.360 83.600 C 347.249 84.590,346.997 85.760,346.800 86.200 C 346.603 86.640,346.351 87.810,346.239 88.800 C 345.930 91.550,345.570 93.736,345.316 94.400 C 345.190 94.730,345.015 95.810,344.927 96.800 C 344.839 97.790,344.595 99.122,344.384 99.760 C 344.173 100.398,344.000 101.493,344.000 102.193 C 344.000 102.894,343.884 103.583,343.742 103.725 C 343.599 103.867,343.439 104.482,343.386 105.092 C 343.332 105.701,343.160 107.010,343.003 108.000 C 342.845 108.990,342.643 110.340,342.554 111.000 C 342.465 111.660,342.214 113.100,341.996 114.200 C 341.779 115.300,341.485 117.240,341.344 118.511 C 341.202 119.783,340.932 120.918,340.743 121.035 C 340.555 121.152,340.400 122.216,340.400 123.400 C 340.400 124.584,340.220 125.664,340.000 125.800 C 339.780 125.936,339.600 127.027,339.600 128.224 C 339.600 129.421,339.420 130.400,339.200 130.400 C 338.980 130.400,338.800 131.174,338.800 132.120 C 338.800 133.066,338.636 134.011,338.435 134.220 C 338.235 134.429,337.975 135.590,337.859 136.800 C 337.743 138.010,337.446 140.080,337.200 141.400 C 336.954 142.720,336.656 144.745,336.539 145.900 C 336.422 147.055,336.163 148.000,335.963 148.000 C 335.763 148.000,335.600 149.001,335.600 150.224 C 335.600 151.447,335.450 152.355,335.268 152.242 C 335.085 152.129,334.894 153.058,334.844 154.306 C 334.793 155.555,334.602 156.762,334.419 156.988 C 334.105 157.377,333.882 158.714,333.352 163.400 C 333.228 164.500,332.963 165.571,332.763 165.780 C 332.563 165.989,332.400 166.988,332.400 168.000 C 332.400 169.012,332.230 170.011,332.023 170.220 C 331.815 170.429,331.603 171.545,331.551 172.700 C 331.499 173.855,331.309 174.800,331.129 174.800 C 330.948 174.800,330.800 175.599,330.800 176.576 C 330.800 177.553,330.653 178.444,330.472 178.555 C 330.292 178.667,330.102 179.708,330.049 180.870 C 329.996 182.032,329.815 183.076,329.648 183.191 C 329.481 183.306,329.299 184.390,329.242 185.600 C 329.186 186.810,328.974 187.971,328.770 188.180 C 328.567 188.389,328.400 189.323,328.400 190.256 C 328.400 191.189,328.253 192.044,328.072 192.155 C 327.892 192.267,327.702 193.312,327.650 194.479 C 327.598 195.645,327.385 196.660,327.175 196.734 C 326.966 196.808,326.881 197.007,326.986 197.177 C 327.091 197.346,326.810 199.536,326.362 202.043 C 325.915 204.549,325.567 207.260,325.589 208.068 C 325.611 208.875,325.442 209.650,325.214 209.791 C 324.986 209.932,324.800 211.037,324.800 212.247 C 324.800 213.612,324.648 214.353,324.400 214.200 C 324.150 214.046,324.000 214.863,324.000 216.376 C 324.000 217.725,323.823 218.800,323.600 218.800 C 323.380 218.800,323.200 219.779,323.200 220.976 C 323.200 222.173,323.020 223.264,322.800 223.400 C 322.580 223.536,322.400 224.526,322.400 225.600 C 322.400 226.674,322.220 227.664,322.000 227.800 C 321.780 227.936,321.600 228.947,321.600 230.047 C 321.600 231.147,321.450 231.955,321.268 231.842 C 321.085 231.729,320.895 232.663,320.845 233.918 C 320.795 235.173,320.584 236.371,320.377 236.580 C 320.170 236.789,320.000 237.698,320.000 238.600 C 320.000 239.502,319.837 240.411,319.637 240.620 C 319.238 241.037,318.810 244.166,318.682 247.600 L 318.600 249.800 336.800 249.915 C 358.819 250.054,357.385 250.221,357.449 247.499 C 357.476 246.345,357.619 244.500,357.766 243.400 C 357.913 242.300,358.071 240.384,358.117 239.143 C 358.163 237.901,358.335 236.967,358.500 237.066 C 358.665 237.166,358.800 235.717,358.800 233.847 C 358.800 231.977,358.980 230.336,359.200 230.200 C 359.420 230.064,359.600 228.538,359.600 226.810 C 359.600 225.081,359.771 223.607,359.979 223.533 C 360.187 223.460,360.393 221.910,360.435 220.089 C 360.478 218.267,360.668 216.682,360.857 216.565 C 361.045 216.448,361.200 215.024,361.200 213.400 C 361.200 211.776,361.380 210.336,361.600 210.200 C 361.820 210.064,362.000 208.513,362.000 206.753 C 362.000 204.993,362.156 203.649,362.346 203.767 C 362.536 203.884,362.726 202.410,362.768 200.490 C 362.809 198.571,363.014 196.829,363.222 196.620 C 363.430 196.411,363.600 194.915,363.600 193.296 C 363.600 191.388,363.744 190.442,364.010 190.606 C 364.235 190.745,364.394 190.711,364.363 190.530 C 364.145 189.279,364.468 183.595,364.746 183.767 C 364.936 183.884,365.126 182.410,365.168 180.490 C 365.209 178.571,365.414 176.829,365.622 176.620 C 365.830 176.411,366.000 174.937,366.000 173.344 C 366.000 171.751,366.180 170.336,366.400 170.200 C 366.620 170.064,366.800 168.739,366.800 167.256 C 366.800 165.653,367.003 164.342,367.300 164.021 C 367.707 163.583,367.688 163.545,367.200 163.818 C 366.717 164.088,366.690 164.041,367.065 163.577 C 367.321 163.260,367.630 161.650,367.752 160.000 C 367.873 158.350,368.166 155.380,368.401 153.400 C 368.637 151.420,368.927 148.403,369.046 146.695 C 369.164 144.988,369.402 143.678,369.575 143.784 C 369.747 143.891,369.923 142.509,369.967 140.714 C 370.010 138.919,370.169 137.259,370.321 137.025 C 370.472 136.791,370.740 134.980,370.916 133.000 C 371.092 131.020,371.415 127.960,371.634 126.200 C 371.853 124.440,372.129 121.695,372.247 120.100 C 372.366 118.505,372.584 117.200,372.732 117.200 C 372.879 117.200,373.008 116.795,373.019 116.300 C 373.048 114.869,373.578 108.680,373.746 107.800 C 374.048 106.223,374.516 102.160,374.646 100.000 C 375.034 93.537,375.301 90.985,375.611 90.794 C 375.799 90.677,375.990 89.100,376.033 87.291 C 376.077 85.481,376.267 84.000,376.456 84.000 C 376.645 84.000,376.800 82.571,376.800 80.824 C 376.800 79.077,376.980 77.536,377.200 77.400 C 377.420 77.264,377.600 75.713,377.600 73.953 C 377.600 72.193,377.755 70.848,377.944 70.965 C 378.133 71.082,378.323 69.698,378.366 67.889 C 378.409 66.080,378.614 64.429,378.822 64.220 C 379.030 64.011,379.200 62.425,379.200 60.696 C 379.200 58.926,379.358 57.650,379.561 57.776 C 380.488 58.349,380.072 46.574,379.090 44.437 C 378.571 43.309,378.048 42.485,377.928 42.606 C 377.807 42.727,377.482 42.280,377.205 41.613 C 376.929 40.946,376.455 40.400,376.151 40.400 C 375.848 40.400,375.600 40.220,375.600 40.000 C 375.600 39.780,375.412 39.600,375.183 39.600 C 374.954 39.600,374.380 39.240,373.908 38.800 C 373.436 38.360,372.723 38.000,372.325 38.000 C 371.926 38.000,371.600 37.820,371.600 37.600 C 371.600 37.357,369.800 37.200,367.000 37.200 C 364.200 37.200,362.400 37.357,362.400 37.600 M374.000 250.012 C 374.000 250.165,372.875 250.791,371.500 251.402 C 369.015 252.507,365.552 254.099,360.200 256.599 C 358.660 257.318,356.410 258.356,355.200 258.904 C 351.265 260.689,348.658 261.887,345.428 263.397 C 343.683 264.212,340.713 265.562,338.828 266.396 C 336.942 267.230,333.780 268.665,331.800 269.584 C 329.820 270.503,327.210 271.712,326.000 272.271 C 324.790 272.830,322.720 273.788,321.400 274.400 C 320.080 275.012,318.010 275.962,316.800 276.512 C 315.590 277.062,313.430 278.053,312.000 278.714 C 309.319 279.952,307.333 280.854,300.800 283.800 C 294.081 286.829,286.128 290.493,278.400 294.119 C 276.750 294.894,274.320 296.013,273.000 296.607 C 271.680 297.201,268.800 298.496,266.600 299.486 C 264.400 300.476,261.250 301.916,259.600 302.686 C 257.950 303.456,255.610 304.536,254.400 305.086 C 253.190 305.637,251.030 306.631,249.600 307.295 C 245.959 308.985,242.575 310.542,240.000 311.712 C 236.640 313.239,233.008 314.903,228.568 316.948 L 224.536 318.806 121.468 318.703 L 18.400 318.600 18.400 321.620 C 18.400 323.281,18.566 324.811,18.769 325.020 C 19.122 325.384,19.356 327.498,19.838 334.705 C 19.963 336.577,20.220 337.911,20.430 337.782 C 20.644 337.649,20.800 338.814,20.800 340.553 C 20.800 342.203,20.980 343.664,21.200 343.800 C 21.420 343.936,21.600 345.376,21.600 347.000 C 21.600 348.624,21.780 350.064,22.000 350.200 C 22.220 350.336,22.400 351.776,22.400 353.400 C 22.400 355.024,22.580 356.464,22.800 356.600 C 23.020 356.736,23.200 358.086,23.200 359.600 C 23.200 361.114,23.380 362.464,23.600 362.600 C 23.820 362.736,24.000 364.167,24.000 365.781 C 24.000 368.087,24.135 368.766,24.633 368.957 C 24.981 369.091,71.601 369.200,128.233 369.200 L 231.200 369.200 231.200 367.946 C 231.200 367.256,231.027 365.591,230.815 364.246 C 230.603 362.901,230.234 360.180,229.995 358.200 C 229.755 356.220,229.398 353.340,229.200 351.800 C 229.002 350.260,228.642 347.380,228.400 345.400 C 228.158 343.420,227.794 340.540,227.592 339.000 C 227.390 337.460,227.034 334.670,226.800 332.800 C 226.566 330.930,226.209 328.140,226.006 326.600 C 225.804 325.060,225.527 322.720,225.392 321.400 L 225.146 319.000 227.873 317.734 C 230.585 316.474,238.601 312.815,242.800 310.920 C 244.010 310.374,246.260 309.336,247.800 308.612 C 249.340 307.889,251.590 306.846,252.800 306.293 C 254.010 305.740,256.170 304.747,257.600 304.086 C 259.030 303.426,261.190 302.437,262.400 301.889 C 263.610 301.341,265.860 300.312,267.400 299.603 C 268.940 298.893,271.910 297.542,274.000 296.600 C 279.449 294.144,284.717 291.727,291.000 288.800 C 297.283 285.873,302.551 283.456,308.000 281.000 C 310.090 280.058,313.060 278.707,314.600 277.997 C 316.140 277.288,318.390 276.259,319.600 275.711 C 320.810 275.163,322.925 274.194,324.300 273.558 C 325.675 272.921,327.970 271.860,329.400 271.200 C 330.830 270.540,333.125 269.479,334.500 268.842 C 335.875 268.206,338.080 267.198,339.400 266.602 C 344.328 264.378,350.680 261.485,353.100 260.361 C 356.689 258.695,360.661 256.866,363.200 255.712 C 364.410 255.162,366.480 254.209,367.800 253.593 C 369.120 252.977,371.325 251.962,372.700 251.337 C 375.185 250.208,375.747 249.733,374.600 249.733 C 374.270 249.733,374.000 249.859,374.000 250.012 M59.392 338.115 C 65.392 341.513,62.986 350.000,56.023 350.000 C 53.571 350.000,53.442 349.947,51.747 348.253 C 46.501 343.006,52.944 334.463,59.392 338.115 M187.510 343.700 L 187.620 350.000 150.010 350.000 L 112.400 350.000 112.400 343.867 C 112.400 340.493,112.521 337.612,112.669 337.465 C 112.817 337.317,129.692 337.242,150.169 337.298 L 187.400 337.400 187.510 343.700 M84.446 338.474 C 87.097 339.964,88.215 343.235,87.035 346.051 C 84.637 351.776,76.805 351.162,75.179 345.122 C 73.785 339.945,79.618 335.760,84.446 338.474 " stroke="none" fill="#2c7cd3" fill-rule="evenodd"></path><path id="path2" d="M372.400 251.451 C 369.763 252.699,366.203 254.348,363.200 255.712 C 360.661 256.866,356.689 258.695,353.100 260.361 C 350.680 261.485,344.328 264.378,339.400 266.602 C 338.080 267.198,335.875 268.206,334.500 268.842 C 333.125 269.479,330.830 270.540,329.400 271.200 C 327.970 271.860,325.675 272.921,324.300 273.558 C 322.925 274.194,320.810 275.163,319.600 275.711 C 318.390 276.259,316.140 277.288,314.600 277.997 C 313.060 278.707,310.090 280.058,308.000 281.000 C 302.551 283.456,297.283 285.873,291.000 288.800 C 284.717 291.727,279.449 294.144,274.000 296.600 C 271.910 297.542,268.940 298.893,267.400 299.603 C 265.860 300.312,263.610 301.341,262.400 301.889 C 261.190 302.437,259.030 303.426,257.600 304.086 C 256.170 304.747,254.010 305.740,252.800 306.293 C 251.590 306.846,249.340 307.889,247.800 308.612 C 246.260 309.336,244.010 310.374,242.800 310.920 C 238.601 312.815,230.585 316.474,227.873 317.734 L 225.146 319.000 225.392 321.400 C 225.527 322.720,225.804 325.060,226.006 326.600 C 226.209 328.140,226.566 330.930,226.800 332.800 C 227.034 334.670,227.390 337.460,227.592 339.000 C 227.794 340.540,228.158 343.420,228.400 345.400 C 228.642 347.380,229.002 350.260,229.200 351.800 C 229.398 353.340,229.755 356.220,229.995 358.200 C 230.234 360.180,230.603 362.901,230.815 364.246 C 231.027 365.591,231.200 367.257,231.200 367.947 L 231.200 369.203 291.100 369.101 L 351.000 369.000 351.122 367.100 C 351.189 366.055,351.396 365.200,351.582 365.200 C 351.767 365.200,352.022 364.435,352.147 363.500 C 352.752 358.984,352.908 358.173,353.241 357.820 C 353.438 357.611,353.600 356.792,353.600 356.000 C 353.600 355.208,353.762 354.389,353.959 354.180 C 354.156 353.971,354.431 352.990,354.569 352.000 C 355.186 347.563,355.303 346.978,355.641 346.620 C 355.838 346.411,356.000 345.567,356.000 344.744 C 356.000 343.921,356.180 343.136,356.400 343.000 C 356.620 342.864,356.800 341.983,356.800 341.043 C 356.800 340.103,356.935 339.199,357.100 339.035 C 357.425 338.713,358.227 334.395,358.649 330.700 C 358.793 329.435,359.066 328.400,359.256 328.400 C 359.445 328.400,359.600 327.500,359.600 326.400 C 359.600 325.300,359.780 324.400,360.000 324.400 C 360.220 324.400,360.400 323.579,360.400 322.576 C 360.400 321.463,360.556 320.849,360.800 321.000 C 361.047 321.153,361.200 320.463,361.200 319.200 C 361.200 317.937,361.353 317.247,361.600 317.400 C 361.847 317.552,362.000 316.871,362.000 315.624 C 362.000 314.511,362.180 313.600,362.400 313.600 C 362.620 313.600,362.800 312.700,362.800 311.600 C 362.800 310.500,362.980 309.600,363.200 309.600 C 363.420 309.600,363.600 308.891,363.600 308.024 C 363.600 307.157,363.780 306.336,364.000 306.200 C 364.220 306.064,364.400 305.164,364.400 304.200 C 364.400 303.236,364.580 302.336,364.800 302.200 C 365.020 302.064,365.200 301.254,365.200 300.400 C 365.200 299.546,365.380 298.736,365.600 298.600 C 365.820 298.464,366.000 297.553,366.000 296.576 C 366.000 295.599,366.180 294.800,366.400 294.800 C 366.620 294.800,366.800 294.116,366.800 293.280 C 366.800 292.444,366.962 291.589,367.159 291.380 C 367.492 291.027,367.648 290.216,368.253 285.700 C 368.378 284.765,368.642 284.000,368.840 284.000 C 369.038 284.000,369.200 283.136,369.200 282.080 C 369.200 281.024,369.370 279.989,369.579 279.780 C 369.787 279.571,370.002 278.635,370.057 277.700 C 370.112 276.765,370.283 276.000,370.438 276.000 C 370.593 276.000,370.814 275.235,370.931 274.300 C 371.047 273.365,371.343 271.700,371.589 270.600 C 372.160 268.051,372.703 265.384,373.015 263.600 C 373.149 262.830,373.363 261.930,373.490 261.600 C 373.617 261.270,373.780 260.640,373.854 260.200 C 373.976 259.467,374.347 257.478,374.637 256.000 C 375.058 253.854,375.254 250.401,374.956 250.405 C 374.760 250.408,373.610 250.879,372.400 251.451 M53.189 338.037 C 47.447 341.368,49.492 350.000,56.023 350.000 C 58.988 350.000,60.668 349.084,61.979 346.752 C 65.027 341.328,58.563 334.919,53.189 338.037 M131.300 337.500 C 141.585 337.559,158.415 337.559,168.700 337.500 C 178.985 337.440,170.570 337.392,150.000 337.392 C 129.430 337.392,121.015 337.440,131.300 337.500 M60.331 339.851 C 61.661 341.181,61.787 341.502,61.787 343.561 C 61.787 349.118,55.680 351.530,52.057 347.404 C 47.196 341.868,55.117 334.637,60.331 339.851 " stroke="none" fill="#1d5092" fill-rule="evenodd"></path><path id="path3" d="M112.800 343.800 L 112.800 350.000 150.000 350.000 L 187.200 350.000 187.200 343.800 L 187.200 337.600 150.000 337.600 L 112.800 337.600 112.800 343.800 M54.600 338.273 C 53.124 338.680,51.749 339.940,51.022 341.551 C 49.023 345.985,53.609 350.775,58.182 349.028 C 64.926 346.452,61.563 336.355,54.600 338.273 " stroke="none" fill="#abbb08" fill-rule="evenodd"></path><path id="path4" d="M78.200 338.344 C 75.611 339.944,74.472 342.497,75.179 345.122 C 76.805 351.162,84.637 351.776,87.035 346.051 C 89.236 340.798,83.014 335.371,78.200 338.344 M112.562 343.800 C 112.562 347.320,112.624 348.706,112.698 346.881 C 112.772 345.056,112.772 342.176,112.697 340.481 C 112.622 338.786,112.561 340.280,112.562 343.800 M187.362 343.800 C 187.362 347.320,187.424 348.706,187.498 346.881 C 187.572 345.056,187.572 342.176,187.497 340.481 C 187.422 338.786,187.361 340.280,187.362 343.800 " stroke="none" fill="#dcd777" fill-rule="evenodd"></path></g></svg>